#!OML:ASF E:\emotionWalksFemale\Project 1\Capture day 1\Session 1\Female1.ASF
:FULLY-SPECIFIED
:DEGREES
1784
root 7.7278 15.0372 -24.3618 -161.561 19.2426 -163.705
lowerback 20.4453 2.98158 -3.89057
upperback 0.262974 3.22694 0.261958
thorax -11.4418 1.80833 1.52602
lowerneck -12.2928 0.144076 -2.95001
upperneck -4.7284 1.32318 8.78264
head 0.547898 1.15659 3.44609
rclavicle -5.32743e-014 3.81667e-014
rhumerus -50.3306 18.0576 -99.1037
rradius 51.8742
rwrist -9.87896
rhand 7.70467 -57.0033
rfingers 7.12502
rthumb -147.054 455.985
lclavicle -5.32743e-014 3.81667e-014
lhumerus -39.8137 12.87 60.7618
lradius 36.6601
lwrist -15.9083
lhand -8.68532 -34.0918
lfingers 7.12502
lthumb 17.2493 -4.83731
rfemur -11.883 -1.81666 30.2464
rtibia 42.2942
rfoot -8.84979 -10.6673
rtoes -25.7488
lfemur -47.3584 -8.50819 3.47465
ltibia 46.3382
lfoot -15.0282 10.5849
ltoes -24.6887
1785
root 7.70242 15.0625 -24.4487 -161.47 19.5787 -163.7
lowerback 20.4796 3.02391 -4.32803
upperback 0.386446 3.17942 0.172265
thorax -11.3372 1.80862 1.69076
lowerneck -12.5747 0.141345 -3.15179
upperneck -4.68571 1.3707 9.1886
head 0.6079 1.20758 3.63599
rclavicle 3.18055e-014 -7.95139e-015
rhumerus -50.21 18.0594 -99.0188
rradius 52.2973
rwrist -9.33426
rhand 8.09312 -57.2158
rfingers 7.12502
rthumb -146.684 455.851
lclavicle 3.18055e-014 -7.95139e-015
lhumerus -38.682 12.3157 61.2121
lradius 36.8893
lwrist -15.6699
lhand -8.78078 -33.8741
lfingers 7.12502
lthumb 17.1575 -4.61165
rfemur -12.7655 -1.70744 29.7555
rtibia 43.9036
rfoot -8.26784 -10.0372
rtoes -25.6973
lfemur -46.9576 -8.28747 3.07245
ltibia 46.42
lfoot -15.5999 10.6163
ltoes -25.2117
1786
root 7.68089 15.0903 -24.5315 -161.401 19.9401 -163.645
lowerback 20.799 3.1249 -4.80963
upperback 0.298103 3.1693 0.101253
thorax -11.64 1.83183 1.87229
lowerneck -12.1511 0.368525 -3.1032
upperneck -4.86494 1.68326 9.32518
head 0.453783 1.35269 3.67745
rclavicle -6.91771e-014 6.67916e-014
rhumerus -50.5408 17.8494 -98.9712
rradius 52.9691
rwrist -8.26149
rhand 9.31683 -57.757
rfingers 7.12502
rthumb -145.522 455.567
lclavicle -6.91771e-014 6.67916e-014
lhumerus -37.796 11.5824 61.5491
lradius 37.1798
lwrist -15.154
lhand -7.94275 -33.4143
lfingers 7.12502
lthumb 17.9639 -4.22395
rfemur -13.5728 -1.58027 29.3552
rtibia 45.4058
rfoot -7.7638 -9.63815
rtoes -25.4364
lfemur -46.4798 -7.98154 2.69815
ltibia 46.4347
lfoot -15.8953 10.7989
ltoes -26.8577
1787
root 7.65854 15.1136 -24.6121 -161.35 20.1304 -163.459
lowerback 20.8497 3.13197 -4.97594
upperback 0.444558 3.14529 0.0494664
thorax -11.5056 1.829 1.918
lowerneck -11.8685 0.473924 -3.03675
upperneck -5.24818 1.87405 9.48608
head 0.265777 1.44758 3.71896
rclavicle 4.29375e-014 4.29375e-014
rhumerus -50.4461 17.7514 -98.8408
rradius 53.4756
rwrist -7.39062
rhand 10.3123 -58.1439
rfingers 7.12502
rthumb -144.578 455.4
lclavicle 4.29375e-014 4.29375e-014
lhumerus -36.4519 10.677 62.051
lradius 37.229
lwrist -14.4273
lhand -7.63077 -33.3724
lfingers 7.12502
lthumb 18.2641 -4.20981
rfemur -14.2885 -1.50649 29.1644
rtibia 46.8581
rfoot -7.59121 -9.46963
rtoes -26.0627
lfemur -46.0122 -7.65244 2.44136
ltibia 46.3955
lfoot -15.8883 10.9865
ltoes -29.0181
1788
root 7.63583 15.1315 -24.6899 -161.285 20.2283 -163.246
lowerback 20.9854 3.09912 -5.05606
upperback 0.54634 3.08186 0.00407169
thorax -11.462 1.80391 1.92964
lowerneck -11.7351 0.487826 -3.2688
upperneck -5.47254 1.9768 9.99903
head 0.158555 1.51592 3.94617
rclavicle -4.21423e-014 6.83819e-014
rhumerus -50.4574 17.7758 -98.8334
rradius 53.9369
rwrist -6.92271
rhand 10.5579 -58.2681
rfingers 7.12502
rthumb -144.345 455.331
lclavicle -4.21423e-014 6.83819e-014
lhumerus -35.2045 9.48544 62.5765
lradius 37.2958
lwrist -13.6247
lhand -8.05019 -33.594
lfingers 7.12502
lthumb 17.8605 -4.39417
rfemur -15.0097 -1.45201 29.0788
rtibia 48.2576
rfoot -7.45704 -9.60831
rtoes -26.6056
lfemur -45.6171 -7.40479 2.29405
ltibia 46.3558
lfoot -16.1466 10.8864
ltoes -29.4012
1789
root 7.61705 15.1447 -24.7606 -161.163 20.3133 -163.107
lowerback 21.3173 3.1079 -5.37967
upperback 0.458951 2.99005 0.00847789
thorax -11.7583 1.78378 2.13155
lowerneck -11.7598 0.534003 -3.31324
upperneck -5.27164 2.02013 10.1606
head 0.224373 1.54068 4.01725
rclavicle 2.8625e-014 -4.77083e-014
rhumerus -50.8236 17.9737 -98.9441
rradius 54.3959
rwrist -6.66789
rhand 10.5328 -58.1612
rfingers 7.12502
rthumb -144.369 455.433
lclavicle 2.8625e-014 -4.77083e-014
lhumerus -34.3732 8.70685 62.9211
lradius 37.6155
lwrist -13.3077
lhand -8.6192 -33.9731
lfingers 7.12502
lthumb 17.313 -4.72423
rfemur -15.8918 -1.41018 29.0022
rtibia 49.5646
rfoot -7.15156 -10.0869
rtoes -27.2832
lfemur -45.3638 -7.11818 2.13128
ltibia 46.3621
lfoot -16.646 10.5456
ltoes -28.8534
